#tb 0: 1/25
#media_type 0: video
#codec_id 0: rawvideo
#dimensions 0: 176x576
#sar 0: 0/1
0,          0,          0,        1,   152064, 0x2f9389ef
0,          1,          1,        1,   152064, 0x16c66551
0,          2,          2,        1,   152064, 0xd779f64a
0,          3,          3,        1,   152064, 0x7a7c80b0
0,          4,          4,        1,   152064, 0x0702b652
